<svg width="22" height="22" viewBox="0 0 22 22" fill="none" xmlns="http://www.w3.org/2000/svg">
    <path d="M21.264 13.3983C21.264 11.9583 20.5889 10.6773 19.5387 9.85091V8.68262C19.5387 3.89498 15.6435 0 10.8563 0C6.06825 0 2.17357 3.89498 2.17357 8.68257V9.53799C0.870396 10.3296 0 11.7618 0 13.3981C0 15.8909 2.02066 17.9115 4.51351 17.9115V8.88466C4.19262 8.88466 3.8797 8.91889 3.57749 8.98213V8.68231C3.57749 4.66922 6.84248 1.40396 10.8562 1.40396C14.8699 1.40396 18.1347 4.66895 18.1347 8.68231V9.10159C17.6987 8.96092 17.2336 8.8844 16.7496 8.8844V17.9109C17.0423 17.9109 17.3272 17.881 17.6038 17.8277C17.1466 18.7985 16.1036 20.2653 13.8931 20.6857C13.7491 20.5247 13.5415 20.4218 13.3089 20.4218H11.9004C11.4647 20.4218 11.1115 20.7753 11.1115 21.211C11.1115 21.6467 11.4647 22 11.9004 22H13.3095C13.6473 22 13.934 21.7862 14.0461 21.4873C17.1524 20.9031 18.2739 18.4895 18.6055 17.508C20.1725 16.8013 21.264 15.2287 21.264 13.3983Z" fill="#0E4D8D"/>
    </svg>
    