<svg width="79" height="19" viewBox="0 0 79 19" fill="none" xmlns="http://www.w3.org/2000/svg">
<path d="M10.8301 14H8.7207V8.20801H2.79688V14H0.696289V1.15039H2.79688V6.40625H8.7207V1.15039H10.8301V14ZM18.2393 14.1758C16.7275 14.1758 15.5439 13.7363 14.6885 12.8574C13.8389 11.9727 13.4141 10.7568 13.4141 9.20996C13.4141 7.62207 13.8096 6.37402 14.6006 5.46582C15.3916 4.55762 16.4785 4.10352 17.8613 4.10352C19.1445 4.10352 20.1582 4.49316 20.9023 5.27246C21.6465 6.05176 22.0186 7.12402 22.0186 8.48926V9.60547H15.541C15.5703 10.5488 15.8252 11.2754 16.3057 11.7852C16.7861 12.2891 17.4629 12.541 18.3359 12.541C18.9102 12.541 19.4434 12.4883 19.9355 12.3828C20.4336 12.2715 20.9668 12.0898 21.5352 11.8379V13.5166C21.0312 13.7568 20.5215 13.9268 20.0059 14.0264C19.4902 14.126 18.9014 14.1758 18.2393 14.1758ZM17.8613 5.66797C17.2051 5.66797 16.6777 5.87598 16.2793 6.29199C15.8867 6.70801 15.6523 7.31445 15.5762 8.11133H19.9883C19.9766 7.30859 19.7832 6.70215 19.4082 6.29199C19.0332 5.87598 18.5176 5.66797 17.8613 5.66797ZM26.4307 14H24.3652V0.324219H26.4307V14ZM34.3232 14.1758C33.0928 14.1758 32.1377 13.7334 31.458 12.8486H31.335C31.417 13.6689 31.458 14.167 31.458 14.3428V18.3242H29.3926V4.2793H31.0625C31.1094 4.46094 31.2061 4.89453 31.3525 5.58008H31.458C32.1025 4.5957 33.0693 4.10352 34.3584 4.10352C35.5713 4.10352 36.5146 4.54297 37.1885 5.42188C37.8682 6.30078 38.208 7.53418 38.208 9.12207C38.208 10.71 37.8623 11.9492 37.1709 12.8398C36.4854 13.7305 35.5361 14.1758 34.3232 14.1758ZM33.8223 5.79102C33.002 5.79102 32.4014 6.03125 32.0205 6.51172C31.6455 6.99219 31.458 7.75977 31.458 8.81445V9.12207C31.458 10.3057 31.6455 11.1641 32.0205 11.6973C32.3955 12.2246 33.0078 12.4883 33.8574 12.4883C34.5723 12.4883 35.123 12.1953 35.5098 11.6094C35.8965 11.0234 36.0898 10.1885 36.0898 9.10449C36.0898 8.01465 35.8965 7.19141 35.5098 6.63477C35.1289 6.07227 34.5664 5.79102 33.8223 5.79102ZM47.2344 12.708H47.1553C46.4814 13.6865 45.4736 14.1758 44.1318 14.1758C42.8721 14.1758 41.8906 13.7451 41.1875 12.8838C40.4902 12.0225 40.1416 10.7979 40.1416 9.20996C40.1416 7.62207 40.4932 6.38867 41.1963 5.50977C41.8994 4.63086 42.8779 4.19141 44.1318 4.19141C45.4385 4.19141 46.4404 4.66602 47.1377 5.61523H47.252L47.1904 4.9209L47.1553 4.24414V0.324219H48.6143V14H47.4277L47.2344 12.708ZM44.3164 12.9541C45.3125 12.9541 46.0332 12.6846 46.4785 12.1455C46.9297 11.6006 47.1553 10.7246 47.1553 9.51758V9.20996C47.1553 7.84473 46.9268 6.87207 46.4697 6.29199C46.0186 5.70605 45.2949 5.41309 44.2988 5.41309C43.4434 5.41309 42.7871 5.74707 42.3301 6.41504C41.8789 7.07715 41.6533 8.01465 41.6533 9.22754C41.6533 10.458 41.8789 11.3867 42.3301 12.0137C42.7812 12.6406 43.4434 12.9541 44.3164 12.9541ZM55.7861 14.1758C54.3623 14.1758 53.2373 13.7422 52.4111 12.875C51.5908 12.0078 51.1807 10.8037 51.1807 9.2627C51.1807 7.70996 51.5615 6.47656 52.3232 5.5625C53.0908 4.64844 54.1191 4.19141 55.4082 4.19141C56.6152 4.19141 57.5703 4.58984 58.2734 5.38672C58.9766 6.17773 59.3281 7.22363 59.3281 8.52441V9.44727H52.6924C52.7217 10.5781 53.0059 11.4365 53.5449 12.0225C54.0898 12.6084 54.8545 12.9014 55.8389 12.9014C56.876 12.9014 57.9014 12.6846 58.915 12.251V13.5518C58.3994 13.7744 57.9102 13.9326 57.4473 14.0264C56.9902 14.126 56.4365 14.1758 55.7861 14.1758ZM55.3906 5.41309C54.6172 5.41309 53.999 5.66504 53.5361 6.16895C53.0791 6.67285 52.8096 7.37012 52.7275 8.26074H57.7637C57.7637 7.34082 57.5586 6.6377 57.1484 6.15137C56.7383 5.65918 56.1523 5.41309 55.3906 5.41309ZM68.0381 11.3721C68.0381 12.2686 67.7041 12.96 67.0361 13.4463C66.3682 13.9326 65.4307 14.1758 64.2236 14.1758C62.9463 14.1758 61.9502 13.9736 61.2354 13.5693V12.2158C61.6982 12.4502 62.1934 12.6348 62.7207 12.7695C63.2539 12.9043 63.7666 12.9717 64.2588 12.9717C65.0205 12.9717 65.6064 12.8516 66.0166 12.6113C66.4268 12.3652 66.6318 11.9932 66.6318 11.4951C66.6318 11.1201 66.4678 10.8008 66.1396 10.5371C65.8174 10.2676 65.1846 9.95117 64.2412 9.58789C63.3447 9.25391 62.7061 8.96387 62.3252 8.71777C61.9502 8.46582 61.6689 8.18164 61.4814 7.86523C61.2998 7.54883 61.209 7.1709 61.209 6.73145C61.209 5.94629 61.5283 5.32812 62.167 4.87695C62.8057 4.41992 63.6816 4.19141 64.7949 4.19141C65.832 4.19141 66.8457 4.40234 67.8359 4.82422L67.3174 6.01074C66.3506 5.6123 65.4746 5.41309 64.6895 5.41309C63.998 5.41309 63.4766 5.52148 63.125 5.73828C62.7734 5.95508 62.5977 6.25391 62.5977 6.63477C62.5977 6.89258 62.6621 7.1123 62.791 7.29395C62.9258 7.47559 63.1396 7.64844 63.4326 7.8125C63.7256 7.97656 64.2881 8.21387 65.1201 8.52441C66.2627 8.94043 67.0332 9.35938 67.4316 9.78125C67.8359 10.2031 68.0381 10.7334 68.0381 11.3721ZM71.8613 9.06934C72.1133 8.71191 72.4971 8.24316 73.0127 7.66309L76.124 4.36719H77.8555L73.9531 8.47168L78.1279 14H76.3613L72.96 9.44727L71.8613 10.3965V14H70.4199V0.324219H71.8613V7.5752C71.8613 7.89746 71.8379 8.39551 71.791 9.06934H71.8613Z" fill="#0E4D8D"/>
</svg>
