<svg width="203" height="28" viewBox="0 0 203 28" fill="none" xmlns="http://www.w3.org/2000/svg">
<path d="M0.544434 21V1.72559H3.69531V18.2974H11.856V21H0.544434ZM27.7817 13.6831C27.7817 16.0649 27.1709 17.9238 25.9492 19.2598C24.7275 20.5957 23.0269 21.2637 20.8472 21.2637C19.4849 21.2637 18.2808 20.9561 17.2349 20.3408C16.189 19.7256 15.3848 18.8423 14.8223 17.6909C14.2598 16.5396 13.9785 15.2036 13.9785 13.6831C13.9785 11.3188 14.585 9.47314 15.7979 8.146C17.0107 6.81885 18.7202 6.15527 20.9263 6.15527C23.0356 6.15527 24.7056 6.83643 25.936 8.19873C27.1665 9.55225 27.7817 11.3804 27.7817 13.6831ZM17.1689 13.6831C17.1689 17.0493 18.4126 18.7324 20.8999 18.7324C23.3608 18.7324 24.5913 17.0493 24.5913 13.6831C24.5913 10.3521 23.3521 8.68652 20.8735 8.68652C19.5728 8.68652 18.6279 9.11719 18.0391 9.97852C17.459 10.8398 17.1689 12.0747 17.1689 13.6831ZM43.668 6.41895V8.11963L41.1763 8.58105C41.4048 8.88867 41.5938 9.2666 41.7432 9.71484C41.8926 10.1631 41.9673 10.6377 41.9673 11.1387C41.9673 12.6416 41.4487 13.8237 40.4116 14.6851C39.3745 15.5464 37.9463 15.9771 36.127 15.9771C35.6611 15.9771 35.2393 15.9419 34.8613 15.8716C34.1934 16.2847 33.8594 16.7681 33.8594 17.3218C33.8594 17.6558 34.0132 17.9062 34.3208 18.0732C34.6372 18.2402 35.2129 18.3237 36.0479 18.3237H38.5923C40.2007 18.3237 41.4224 18.6665 42.2573 19.3521C43.0923 20.0376 43.5098 21.0264 43.5098 22.3184C43.5098 23.9707 42.8286 25.2451 41.4663 26.1416C40.104 27.0381 38.1353 27.4863 35.5601 27.4863C33.5737 27.4863 32.0576 27.1348 31.0117 26.4316C29.9658 25.7285 29.4429 24.7266 29.4429 23.4258C29.4429 22.5293 29.7241 21.7734 30.2866 21.1582C30.8579 20.5518 31.6533 20.1299 32.6729 19.8926C32.2598 19.7168 31.917 19.4355 31.6445 19.0488C31.3809 18.6533 31.249 18.2402 31.249 17.8096C31.249 17.2646 31.4028 16.8032 31.7104 16.4253C32.0181 16.0474 32.4751 15.6738 33.0815 15.3047C32.3257 14.9795 31.7104 14.4521 31.2358 13.7227C30.77 12.9844 30.5371 12.123 30.5371 11.1387C30.5371 9.55664 31.0337 8.33057 32.0269 7.46045C33.0288 6.59033 34.4526 6.15527 36.2983 6.15527C36.7114 6.15527 37.1421 6.18604 37.5903 6.24756C38.0474 6.30029 38.3901 6.35742 38.6187 6.41895H43.668ZM32.2114 23.2676C32.2114 23.9355 32.5103 24.4497 33.1079 24.8101C33.7144 25.1704 34.5625 25.3506 35.6523 25.3506C37.3398 25.3506 38.5967 25.1089 39.4229 24.6255C40.249 24.1421 40.6621 23.5005 40.6621 22.7007C40.6621 22.0679 40.4336 21.6152 39.9766 21.3428C39.5283 21.0791 38.689 20.9473 37.4585 20.9473H35.1118C34.2241 20.9473 33.5166 21.1538 32.9893 21.5669C32.4707 21.9888 32.2114 22.5557 32.2114 23.2676ZM33.543 11.1387C33.543 12.0527 33.7759 12.7559 34.2417 13.248C34.7163 13.7402 35.3931 13.9863 36.272 13.9863C38.0649 13.9863 38.9614 13.0283 38.9614 11.1123C38.9614 10.1631 38.7373 9.43359 38.2891 8.92383C37.8496 8.40527 37.1772 8.146 36.272 8.146C35.3755 8.146 34.6943 8.40088 34.2285 8.91064C33.7715 9.42041 33.543 10.1631 33.543 11.1387ZM49.4819 21H46.3838V6.41895H49.4819V21ZM46.1992 2.55615C46.1992 2.00244 46.3486 1.57617 46.6475 1.27734C46.9551 0.978516 47.3901 0.829102 47.9526 0.829102C48.4976 0.829102 48.9194 0.978516 49.2183 1.27734C49.5259 1.57617 49.6797 2.00244 49.6797 2.55615C49.6797 3.0835 49.5259 3.50098 49.2183 3.80859C48.9194 4.10742 48.4976 4.25684 47.9526 4.25684C47.3901 4.25684 46.9551 4.10742 46.6475 3.80859C46.3486 3.50098 46.1992 3.0835 46.1992 2.55615ZM66.7524 21H63.6411V12.0352C63.6411 10.9102 63.4126 10.0708 62.9556 9.51709C62.5073 8.96338 61.791 8.68652 60.8066 8.68652C59.4971 8.68652 58.5391 9.07324 57.9326 9.84668C57.3262 10.6201 57.0229 11.9165 57.0229 13.7358V21H53.9248V6.41895H56.3506L56.7856 8.33057H56.9438C57.3833 7.63623 58.0073 7.1001 58.8159 6.72217C59.6245 6.34424 60.521 6.15527 61.5054 6.15527C65.0034 6.15527 66.7524 7.93506 66.7524 11.4946V21ZM75.0845 0.539062H77.4575V27.3413H75.0845V0.539062ZM101.465 21H98.3008V12.312H89.415V21H86.2642V1.72559H89.415V9.60938H98.3008V1.72559H101.465V21ZM112.579 21.2637C110.311 21.2637 108.536 20.6045 107.252 19.2861C105.978 17.959 105.341 16.1353 105.341 13.8149C105.341 11.4331 105.934 9.56104 107.121 8.19873C108.307 6.83643 109.938 6.15527 112.012 6.15527C113.937 6.15527 115.457 6.73975 116.573 7.90869C117.689 9.07764 118.248 10.686 118.248 12.7339V14.4082H108.531C108.575 15.8232 108.958 16.9131 109.678 17.6777C110.399 18.4336 111.414 18.8115 112.724 18.8115C113.585 18.8115 114.385 18.7324 115.123 18.5742C115.87 18.4072 116.67 18.1348 117.522 17.7568V20.2749C116.767 20.6353 116.002 20.8901 115.229 21.0396C114.455 21.189 113.572 21.2637 112.579 21.2637ZM112.012 8.50195C111.027 8.50195 110.236 8.81396 109.639 9.43799C109.05 10.062 108.698 10.9717 108.584 12.167H115.202C115.185 10.9629 114.895 10.0532 114.332 9.43799C113.77 8.81396 112.996 8.50195 112.012 8.50195ZM124.866 21H121.768V0.486328H124.866V21ZM136.705 21.2637C134.859 21.2637 133.426 20.6001 132.407 19.2729H132.222C132.345 20.5034 132.407 21.2505 132.407 21.5142V27.4863H129.309V6.41895H131.813C131.884 6.69141 132.029 7.3418 132.249 8.37012H132.407C133.374 6.89355 134.824 6.15527 136.757 6.15527C138.577 6.15527 139.992 6.81445 141.002 8.13281C142.022 9.45117 142.532 11.3013 142.532 13.6831C142.532 16.0649 142.013 17.9238 140.976 19.2598C139.948 20.5957 138.524 21.2637 136.705 21.2637ZM135.953 8.68652C134.723 8.68652 133.822 9.04688 133.25 9.76758C132.688 10.4883 132.407 11.6396 132.407 13.2217V13.6831C132.407 15.4585 132.688 16.7461 133.25 17.5459C133.813 18.3369 134.731 18.7324 136.006 18.7324C137.078 18.7324 137.904 18.293 138.484 17.4141C139.064 16.5352 139.354 15.2827 139.354 13.6567C139.354 12.022 139.064 10.7871 138.484 9.95215C137.913 9.1084 137.069 8.68652 135.953 8.68652ZM156.071 19.062H155.953C154.942 20.5298 153.43 21.2637 151.417 21.2637C149.528 21.2637 148.056 20.6177 147.001 19.3257C145.955 18.0337 145.432 16.1968 145.432 13.8149C145.432 11.4331 145.959 9.58301 147.014 8.26465C148.069 6.94629 149.537 6.28711 151.417 6.28711C153.377 6.28711 154.88 6.99902 155.926 8.42285H156.098L156.005 7.38135L155.953 6.36621V0.486328H158.141V21H156.361L156.071 19.062ZM151.694 19.4312C153.188 19.4312 154.27 19.0269 154.938 18.2183C155.614 17.4009 155.953 16.0869 155.953 14.2764V13.8149C155.953 11.7671 155.61 10.3081 154.924 9.43799C154.248 8.55908 153.162 8.11963 151.668 8.11963C150.385 8.11963 149.4 8.62061 148.715 9.62256C148.038 10.6157 147.7 12.022 147.7 13.8413C147.7 15.687 148.038 17.0801 148.715 18.0205C149.392 18.9609 150.385 19.4312 151.694 19.4312ZM168.899 21.2637C166.763 21.2637 165.076 20.6133 163.836 19.3125C162.606 18.0117 161.991 16.2056 161.991 13.894C161.991 11.5649 162.562 9.71484 163.705 8.34375C164.856 6.97266 166.398 6.28711 168.332 6.28711C170.143 6.28711 171.575 6.88477 172.63 8.08008C173.685 9.2666 174.212 10.8354 174.212 12.7866V14.1709H164.258C164.302 15.8672 164.729 17.1548 165.537 18.0337C166.354 18.9126 167.501 19.3521 168.978 19.3521C170.534 19.3521 172.072 19.0269 173.592 18.3765V20.3276C172.819 20.6616 172.085 20.8989 171.391 21.0396C170.705 21.189 169.875 21.2637 168.899 21.2637ZM168.306 8.11963C167.146 8.11963 166.218 8.49756 165.524 9.25342C164.838 10.0093 164.434 11.0552 164.311 12.3911H171.865C171.865 11.0112 171.558 9.95654 170.942 9.22705C170.327 8.48877 169.448 8.11963 168.306 8.11963ZM187.277 17.0581C187.277 18.4028 186.776 19.4399 185.774 20.1694C184.772 20.8989 183.366 21.2637 181.555 21.2637C179.639 21.2637 178.145 20.9604 177.073 20.354V18.3237C177.767 18.6753 178.51 18.9521 179.301 19.1543C180.101 19.3564 180.87 19.4575 181.608 19.4575C182.75 19.4575 183.629 19.2773 184.245 18.917C184.86 18.5479 185.167 17.9897 185.167 17.2427C185.167 16.6802 184.921 16.2012 184.429 15.8057C183.946 15.4014 182.997 14.9268 181.582 14.3818C180.237 13.8809 179.279 13.4458 178.708 13.0767C178.145 12.6987 177.723 12.2725 177.442 11.7979C177.169 11.3232 177.033 10.7563 177.033 10.0972C177.033 8.91943 177.512 7.99219 178.47 7.31543C179.428 6.62988 180.742 6.28711 182.412 6.28711C183.968 6.28711 185.488 6.60352 186.974 7.23633L186.196 9.01611C184.746 8.41846 183.432 8.11963 182.254 8.11963C181.217 8.11963 180.435 8.28223 179.907 8.60742C179.38 8.93262 179.116 9.38086 179.116 9.95215C179.116 10.3389 179.213 10.6685 179.406 10.9409C179.608 11.2134 179.929 11.4727 180.369 11.7188C180.808 11.9648 181.652 12.3208 182.9 12.7866C184.614 13.4106 185.77 14.0391 186.367 14.6719C186.974 15.3047 187.277 16.1001 187.277 17.0581ZM193.012 13.604C193.39 13.0679 193.965 12.3647 194.739 11.4946L199.406 6.55078H202.003L196.149 12.7075L202.412 21H199.762L194.66 14.1709L193.012 15.5947V21H190.85V0.486328H193.012V11.3628C193.012 11.8462 192.977 12.5933 192.906 13.604H193.012Z" fill="#0E4D8D"/>
</svg>
