<svg width="103" height="17" viewBox="0 0 103 17" fill="none" xmlns="http://www.w3.org/2000/svg">
    <path d="M27.398 13H25.916L21.457 6.253V13H19.975V3.952H21.457L25.916 10.686V3.952H27.398V13ZM32.5811 13.117C31.9051 13.117 31.2941 12.9653 30.7481 12.662C30.2021 12.35 29.7731 11.9167 29.4611 11.362C29.1491 10.7987 28.9931 10.1487 28.9931 9.412C28.9931 8.684 29.1535 8.03833 29.4741 7.475C29.7948 6.91167 30.2325 6.47833 30.7871 6.175C31.3418 5.87167 31.9615 5.72 32.6461 5.72C33.3308 5.72 33.9505 5.87167 34.5051 6.175C35.0598 6.47833 35.4975 6.91167 35.8181 7.475C36.1388 8.03833 36.2991 8.684 36.2991 9.412C36.2991 10.14 36.1345 10.7857 35.8051 11.349C35.4758 11.9123 35.0251 12.35 34.4531 12.662C33.8898 12.9653 33.2658 13.117 32.5811 13.117ZM32.5811 11.83C32.9625 11.83 33.3178 11.739 33.6471 11.557C33.9851 11.375 34.2581 11.102 34.4661 10.738C34.6741 10.374 34.7781 9.932 34.7781 9.412C34.7781 8.892 34.6785 8.45433 34.4791 8.099C34.2798 7.735 34.0155 7.462 33.6861 7.28C33.3568 7.098 33.0015 7.007 32.6201 7.007C32.2388 7.007 31.8835 7.098 31.5541 7.28C31.2335 7.462 30.9778 7.735 30.7871 8.099C30.5965 8.45433 30.5011 8.892 30.5011 9.412C30.5011 10.1833 30.6961 10.7813 31.0861 11.206C31.4848 11.622 31.9831 11.83 32.5811 11.83ZM40.6632 11.674L42.6912 5.837H44.2642L41.5342 13H39.7662L37.0492 5.837H38.6352L40.6632 11.674ZM48.6214 13.117C47.9454 13.117 47.3344 12.9653 46.7884 12.662C46.2424 12.35 45.8134 11.9167 45.5014 11.362C45.1894 10.7987 45.0334 10.1487 45.0334 9.412C45.0334 8.684 45.1937 8.03833 45.5144 7.475C45.8351 6.91167 46.2727 6.47833 46.8274 6.175C47.3821 5.87167 48.0017 5.72 48.6864 5.72C49.3711 5.72 49.9907 5.87167 50.5454 6.175C51.1001 6.47833 51.5377 6.91167 51.8584 7.475C52.1791 8.03833 52.3394 8.684 52.3394 9.412C52.3394 10.14 52.1747 10.7857 51.8454 11.349C51.5161 11.9123 51.0654 12.35 50.4934 12.662C49.9301 12.9653 49.3061 13.117 48.6214 13.117ZM48.6214 11.83C49.0027 11.83 49.3581 11.739 49.6874 11.557C50.0254 11.375 50.2984 11.102 50.5064 10.738C50.7144 10.374 50.8184 9.932 50.8184 9.412C50.8184 8.892 50.7187 8.45433 50.5194 8.099C50.3201 7.735 50.0557 7.462 49.7264 7.28C49.3971 7.098 49.0417 7.007 48.6604 7.007C48.2791 7.007 47.9237 7.098 47.5944 7.28C47.2737 7.462 47.0181 7.735 46.8274 8.099C46.6367 8.45433 46.5414 8.892 46.5414 9.412C46.5414 10.1833 46.7364 10.7813 47.1264 11.206C47.5251 11.622 48.0234 11.83 48.6214 11.83ZM58.9234 6.877C59.1401 6.513 59.4261 6.23133 59.7814 6.032C60.1454 5.824 60.5744 5.72 61.0684 5.72V7.254H60.6914C60.1107 7.254 59.6687 7.40133 59.3654 7.696C59.0707 7.99067 58.9234 8.502 58.9234 9.23V13H57.4414V5.837H58.9234V6.877ZM69.1257 9.243C69.1257 9.51167 69.1083 9.75433 69.0737 9.971H63.6007C63.644 10.543 63.8563 11.0023 64.2377 11.349C64.619 11.6957 65.087 11.869 65.6417 11.869C66.439 11.869 67.0023 11.5353 67.3317 10.868H68.9307C68.714 11.5267 68.3197 12.0683 67.7477 12.493C67.1843 12.909 66.4823 13.117 65.6417 13.117C64.957 13.117 64.3417 12.9653 63.7957 12.662C63.2583 12.35 62.8337 11.9167 62.5217 11.362C62.2183 10.7987 62.0667 10.1487 62.0667 9.412C62.0667 8.67533 62.214 8.02967 62.5087 7.475C62.812 6.91167 63.2323 6.47833 63.7697 6.175C64.3157 5.87167 64.9397 5.72 65.6417 5.72C66.3177 5.72 66.92 5.86733 67.4487 6.162C67.9773 6.45667 68.389 6.87267 68.6837 7.41C68.9783 7.93867 69.1257 8.54967 69.1257 9.243ZM67.5787 8.775C67.57 8.229 67.375 7.79133 66.9937 7.462C66.6123 7.13267 66.14 6.968 65.5767 6.968C65.0653 6.968 64.6277 7.13267 64.2637 7.462C63.8997 7.78267 63.683 8.22033 63.6137 8.775H67.5787ZM73.6001 5.72C74.1548 5.72 74.6444 5.83267 75.0691 6.058C75.5024 6.27467 75.8404 6.54767 76.0831 6.877V5.837H77.5781V13.117C77.5781 13.7757 77.4394 14.3607 77.1621 14.872C76.8848 15.392 76.4818 15.7993 75.9531 16.094C75.4331 16.3887 74.8091 16.536 74.0811 16.536C73.1104 16.536 72.3044 16.3063 71.6631 15.847C71.0218 15.3963 70.6578 14.781 70.5711 14.001H72.0401C72.1528 14.3737 72.3911 14.6727 72.7551 14.898C73.1278 15.132 73.5698 15.249 74.0811 15.249C74.6791 15.249 75.1601 15.067 75.5241 14.703C75.8968 14.339 76.0831 13.8103 76.0831 13.117V11.921C75.8318 12.259 75.4894 12.545 75.0561 12.779C74.6314 13.0043 74.1461 13.117 73.6001 13.117C72.9761 13.117 72.4041 12.961 71.8841 12.649C71.3728 12.3283 70.9654 11.8863 70.6621 11.323C70.3674 10.751 70.2201 10.1053 70.2201 9.386C70.2201 8.66667 70.3674 8.02967 70.6621 7.475C70.9654 6.92033 71.3728 6.49133 71.8841 6.188C72.4041 5.876 72.9761 5.72 73.6001 5.72ZM76.0831 9.412C76.0831 8.918 75.9791 8.489 75.7711 8.125C75.5718 7.761 75.3074 7.48367 74.9781 7.293C74.6488 7.10233 74.2934 7.007 73.9121 7.007C73.5308 7.007 73.1754 7.10233 72.8461 7.293C72.5168 7.475 72.2481 7.748 72.0401 8.112C71.8408 8.46733 71.7411 8.892 71.7411 9.386C71.7411 9.88 71.8408 10.3133 72.0401 10.686C72.2481 11.0587 72.5168 11.3447 72.8461 11.544C73.1841 11.7347 73.5394 11.83 73.9121 11.83C74.2934 11.83 74.6488 11.7347 74.9781 11.544C75.3074 11.3533 75.5718 11.076 75.7711 10.712C75.9791 10.3393 76.0831 9.906 76.0831 9.412ZM80.4086 4.888C80.14 4.888 79.9146 4.797 79.7326 4.615C79.5506 4.433 79.4596 4.20767 79.4596 3.939C79.4596 3.67033 79.5506 3.445 79.7326 3.263C79.9146 3.081 80.14 2.99 80.4086 2.99C80.6686 2.99 80.8896 3.081 81.0716 3.263C81.2536 3.445 81.3446 3.67033 81.3446 3.939C81.3446 4.20767 81.2536 4.433 81.0716 4.615C80.8896 4.797 80.6686 4.888 80.4086 4.888ZM81.1366 5.837V13H79.6546V5.837H81.1366ZM85.8124 13.117C85.249 13.117 84.742 13.0173 84.2914 12.818C83.8494 12.61 83.4984 12.3327 83.2384 11.986C82.9784 11.6307 82.8397 11.2363 82.8224 10.803H84.3564C84.3824 11.1063 84.5254 11.362 84.7854 11.57C85.054 11.7693 85.3877 11.869 85.7864 11.869C86.2024 11.869 86.523 11.791 86.7484 11.635C86.9824 11.4703 87.0994 11.2623 87.0994 11.011C87.0994 10.7423 86.9694 10.543 86.7094 10.413C86.458 10.283 86.055 10.14 85.5004 9.984C84.963 9.83667 84.5254 9.69367 84.1874 9.555C83.8494 9.41633 83.5547 9.204 83.3034 8.918C83.0607 8.632 82.9394 8.255 82.9394 7.787C82.9394 7.40567 83.052 7.059 83.2774 6.747C83.5027 6.42633 83.8234 6.175 84.2394 5.993C84.664 5.811 85.1494 5.72 85.6954 5.72C86.51 5.72 87.1644 5.928 87.6584 6.344C88.161 6.75133 88.4297 7.31033 88.4644 8.021H86.9824C86.9564 7.70033 86.8264 7.44467 86.5924 7.254C86.3584 7.06333 86.042 6.968 85.6434 6.968C85.2534 6.968 84.9544 7.04167 84.7464 7.189C84.5384 7.33633 84.4344 7.53133 84.4344 7.774C84.4344 7.96467 84.5037 8.125 84.6424 8.255C84.781 8.385 84.95 8.489 85.1494 8.567C85.3487 8.63633 85.6434 8.72733 86.0334 8.84C86.5534 8.97867 86.978 9.12167 87.3074 9.269C87.6454 9.40767 87.9357 9.61567 88.1784 9.893C88.421 10.1703 88.5467 10.5387 88.5554 10.998C88.5554 11.4053 88.4427 11.7693 88.2174 12.09C87.992 12.4107 87.6714 12.662 87.2554 12.844C86.848 13.026 86.367 13.117 85.8124 13.117ZM92.0157 7.046V11.011C92.0157 11.2797 92.0764 11.4747 92.1977 11.596C92.3277 11.7087 92.5444 11.765 92.8477 11.765H93.7577V13H92.5877C91.9204 13 91.4091 12.844 91.0537 12.532C90.6984 12.22 90.5207 11.713 90.5207 11.011V7.046H89.6757V5.837H90.5207V4.056H92.0157V5.837H93.7577V7.046H92.0157ZM98.3606 13.117C97.6846 13.117 97.0736 12.9653 96.5276 12.662C95.9816 12.35 95.5526 11.9167 95.2406 11.362C94.9286 10.7987 94.7726 10.1487 94.7726 9.412C94.7726 8.684 94.933 8.03833 95.2536 7.475C95.5743 6.91167 96.012 6.47833 96.5666 6.175C97.1213 5.87167 97.741 5.72 98.4256 5.72C99.1103 5.72 99.73 5.87167 100.285 6.175C100.839 6.47833 101.277 6.91167 101.598 7.475C101.918 8.03833 102.079 8.684 102.079 9.412C102.079 10.14 101.914 10.7857 101.585 11.349C101.255 11.9123 100.805 12.35 100.233 12.662C99.6693 12.9653 99.0453 13.117 98.3606 13.117ZM98.3606 11.83C98.742 11.83 99.0973 11.739 99.4266 11.557C99.7646 11.375 100.038 11.102 100.246 10.738C100.454 10.374 100.558 9.932 100.558 9.412C100.558 8.892 100.458 8.45433 100.259 8.099C100.059 7.735 99.795 7.462 99.4656 7.28C99.1363 7.098 98.781 7.007 98.3996 7.007C98.0183 7.007 97.663 7.098 97.3336 7.28C97.013 7.462 96.7573 7.735 96.5666 8.099C96.376 8.45433 96.2806 8.892 96.2806 9.412C96.2806 10.1833 96.4756 10.7813 96.8656 11.206C97.2643 11.622 97.7626 11.83 98.3606 11.83Z" fill="#0E4D8D"/>
    <rect x="0.5" y="2.5" width="10.7391" height="10.7391" rx="1.5" stroke="#0E4D8D"/>
    <path d="M7.03906 6.19674V7.82717H8.6695L13.4782 3.01848L11.8478 1.38804L7.03906 6.19674ZM14.7391 1.75761C14.9086 1.58804 14.9086 1.31413 14.7391 1.14457L13.7217 0.127174C13.5521 -0.0423913 13.2782 -0.0423913 13.1086 0.127174L12.313 0.922826L13.9434 2.55326L14.7391 1.75761Z" fill="#0E4D8D"/>
    </svg>
    