<svg width="15" height="15" viewBox="0 0 10 10" fill="none" xmlns="http://www.w3.org/2000/svg">
    <path d="M9.99895 8.04511C9.97926 7.64138 9.73308 7.25406 9.24401 6.86345C8.66631 6.40392 8.21334 6.18728 7.81945 6.18728C7.3271 6.18728 7.01199 6.50568 6.68375 6.84376C6.65093 6.87987 6.61482 6.91269 6.582 6.9488C6.5623 6.96849 6.52948 6.99147 6.45726 6.99147C6.24719 6.99147 5.70888 6.80437 4.4386 5.54394C3.88716 4.99906 3.48671 4.53297 3.24382 4.16206C3.00092 3.79443 2.91886 3.51215 3.02061 3.41039C3.05672 3.37429 3.08954 3.34146 3.12565 3.30536C3.42763 3.00666 3.70991 2.72437 3.76571 2.31408C3.8248 1.87752 3.61472 1.39501 3.08954 0.741818C2.67268 0.246178 2.27223 0 1.85537 0C1.28752 0 0.850962 0.462815 0.496465 0.837007C0.434099 0.902654 0.375017 0.965019 0.319216 1.02082C-0.104211 1.44753 -0.107493 2.36331 0.315934 3.47276C0.772184 4.67411 1.67156 5.97721 2.84665 7.14246C4.93752 9.21692 6.92993 9.95545 7.99998 9.95545C8.43326 9.95545 8.77462 9.84057 8.98798 9.62722C9.04706 9.56813 9.10614 9.50905 9.17179 9.44669C9.55255 9.08234 10.0252 8.62937 9.99895 8.04511Z" fill="#6A707E"/>
    </svg>
