<svg width="15" height="15" viewBox="0 0 10 10" fill="none" xmlns="http://www.w3.org/2000/svg">
    <path d="M9.41667 1.41228H8.72368C8.72368 1.41228 8.59649 1.42105 8.59649 1.32018C8.59649 1.14035 8.59649 0.592105 8.59649 0.592105C8.59649 0.263158 8.32895 0 8.00439 0C7.67544 0 7.41228 0.267544 7.41228 0.592105C7.41228 0.592105 7.41228 1.10088 7.41228 1.27193C7.41228 1.41667 7.26316 1.40789 7.26316 1.40789H6.59211C6.26316 1.40789 6 1.67544 6 2C6 2.32456 6.26754 2.5921 6.59211 2.5921H7.2807C7.2807 2.5921 7.40789 2.57895 7.40789 2.7193C7.40789 2.89035 7.40789 3.40789 7.40789 3.40789C7.40789 3.73684 7.67544 4 8 4C8.32895 4 8.59211 3.73246 8.59211 3.40789C8.59211 3.40789 8.59211 2.88158 8.59211 2.71053C8.59211 2.59649 8.74123 2.5921 8.74123 2.5921H9.40789C9.73684 2.5921 10 2.32456 10 2C10 1.67544 9.74561 1.41228 9.41667 1.41228Z" fill="#6A707E"/>
    <path d="M9.99895 8.04775C9.97925 7.64389 9.73299 7.25644 9.24376 6.86571C8.66587 6.40602 8.21275 6.18932 7.81874 6.18932C7.32622 6.18932 7.01101 6.50781 6.68266 6.84601C6.64983 6.88213 6.61371 6.91496 6.58087 6.95108C6.56117 6.97078 6.52834 6.99376 6.4561 6.99376C6.24596 6.99376 5.70747 6.80661 4.43678 5.54576C3.88515 5.0007 3.48457 4.53445 3.2416 4.16342C2.99862 3.79568 2.91654 3.5133 3.01832 3.41151C3.05444 3.37539 3.08728 3.34256 3.12339 3.30644C3.42547 3.00765 3.70785 2.72527 3.76367 2.31484C3.82277 1.87814 3.61263 1.39547 3.08728 0.742061C2.67028 0.242976 2.26969 0 1.8527 0C1.28466 0 0.847957 0.462967 0.496628 0.837281C0.434242 0.902951 0.37514 0.965336 0.319321 1.02115C-0.104245 1.448 -0.107528 2.36409 0.316037 3.4739C0.772438 4.67564 1.67211 5.97918 2.84758 7.1448C4.93914 9.21995 6.9322 9.95872 8.00261 9.95872C8.43603 9.95872 8.7775 9.8438 8.99093 9.63038C9.05003 9.57128 9.10913 9.51217 9.1748 9.44979C9.5524 9.08532 10.0252 8.63221 9.99895 8.04775Z" fill="#6A707E"/>
    </svg>
