<svg width="77" height="15" viewBox="0 0 77 15" fill="none" xmlns="http://www.w3.org/2000/svg">
    <path d="M30.812 1.965V3.174H28.407V11H26.925V3.174H24.507V1.965H30.812ZM31.9489 7.386C31.9489 6.66667 32.0962 6.02967 32.3909 5.475C32.6942 4.92033 33.1016 4.49133 33.6129 4.188C34.1329 3.876 34.7049 3.72 35.3289 3.72C35.8922 3.72 36.3819 3.83267 36.7979 4.058C37.2226 4.27467 37.5606 4.54767 37.8119 4.877V3.837H39.3069V11H37.8119V9.934C37.5606 10.272 37.2182 10.5537 36.7849 10.779C36.3516 11.0043 35.8576 11.117 35.3029 11.117C34.6876 11.117 34.1242 10.961 33.6129 10.649C33.1016 10.3283 32.6942 9.88633 32.3909 9.323C32.0962 8.751 31.9489 8.10533 31.9489 7.386ZM37.8119 7.412C37.8119 6.918 37.7079 6.489 37.4999 6.125C37.3006 5.761 37.0362 5.48367 36.7069 5.293C36.3776 5.10233 36.0222 5.007 35.6409 5.007C35.2596 5.007 34.9042 5.10233 34.5749 5.293C34.2456 5.475 33.9769 5.748 33.7689 6.112C33.5696 6.46733 33.4699 6.892 33.4699 7.386C33.4699 7.88 33.5696 8.31333 33.7689 8.686C33.9769 9.05867 34.2456 9.34467 34.5749 9.544C34.9129 9.73467 35.2682 9.83 35.6409 9.83C36.0222 9.83 36.3776 9.73467 36.7069 9.544C37.0362 9.35333 37.3006 9.076 37.4999 8.712C37.7079 8.33933 37.8119 7.906 37.8119 7.412ZM43.9834 11.117C43.4201 11.117 42.9131 11.0173 42.4624 10.818C42.0204 10.61 41.6694 10.3327 41.4094 9.986C41.1494 9.63067 41.0108 9.23633 40.9934 8.803H42.5274C42.5534 9.10633 42.6964 9.362 42.9564 9.57C43.2251 9.76933 43.5588 9.869 43.9574 9.869C44.3734 9.869 44.6941 9.791 44.9194 9.635C45.1534 9.47033 45.2704 9.26233 45.2704 9.011C45.2704 8.74233 45.1404 8.543 44.8804 8.413C44.6291 8.283 44.2261 8.14 43.6714 7.984C43.1341 7.83667 42.6964 7.69367 42.3584 7.555C42.0204 7.41633 41.7258 7.204 41.4744 6.918C41.2318 6.632 41.1104 6.255 41.1104 5.787C41.1104 5.40567 41.2231 5.059 41.4484 4.747C41.6738 4.42633 41.9944 4.175 42.4104 3.993C42.8351 3.811 43.3204 3.72 43.8664 3.72C44.6811 3.72 45.3354 3.928 45.8294 4.344C46.3321 4.75133 46.6008 5.31033 46.6354 6.021H45.1534C45.1274 5.70033 44.9974 5.44467 44.7634 5.254C44.5294 5.06333 44.2131 4.968 43.8144 4.968C43.4244 4.968 43.1254 5.04167 42.9174 5.189C42.7094 5.33633 42.6054 5.53133 42.6054 5.774C42.6054 5.96467 42.6748 6.125 42.8134 6.255C42.9521 6.385 43.1211 6.489 43.3204 6.567C43.5198 6.63633 43.8144 6.72733 44.2044 6.84C44.7244 6.97867 45.1491 7.12167 45.4784 7.269C45.8164 7.40767 46.1068 7.61567 46.3494 7.893C46.5921 8.17033 46.7178 8.53867 46.7264 8.998C46.7264 9.40533 46.6138 9.76933 46.3884 10.09C46.1631 10.4107 45.8424 10.662 45.4264 10.844C45.0191 11.026 44.5381 11.117 43.9834 11.117ZM51.2918 7.425L54.5938 11H52.5918L49.9398 7.919V11H48.4578V1.38H49.9398V6.97L52.5398 3.837H54.5938L51.2918 7.425ZM60.775 1.38V11H59.293V1.38H60.775ZM63.6047 2.888C63.336 2.888 63.1107 2.797 62.9287 2.615C62.7467 2.433 62.6557 2.20767 62.6557 1.939C62.6557 1.67033 62.7467 1.445 62.9287 1.263C63.1107 1.081 63.336 0.989999 63.6047 0.989999C63.8647 0.989999 64.0857 1.081 64.2677 1.263C64.4497 1.445 64.5407 1.67033 64.5407 1.939C64.5407 2.20767 64.4497 2.433 64.2677 2.615C64.0857 2.797 63.8647 2.888 63.6047 2.888ZM64.3327 3.837V11H62.8507V3.837H64.3327ZM69.0084 11.117C68.4451 11.117 67.9381 11.0173 67.4874 10.818C67.0454 10.61 66.6944 10.3327 66.4344 9.986C66.1744 9.63067 66.0358 9.23633 66.0184 8.803H67.5524C67.5784 9.10633 67.7214 9.362 67.9814 9.57C68.2501 9.76933 68.5838 9.869 68.9824 9.869C69.3984 9.869 69.7191 9.791 69.9444 9.635C70.1784 9.47033 70.2954 9.26233 70.2954 9.011C70.2954 8.74233 70.1654 8.543 69.9054 8.413C69.6541 8.283 69.2511 8.14 68.6964 7.984C68.1591 7.83667 67.7214 7.69367 67.3834 7.555C67.0454 7.41633 66.7508 7.204 66.4994 6.918C66.2568 6.632 66.1354 6.255 66.1354 5.787C66.1354 5.40567 66.2481 5.059 66.4734 4.747C66.6988 4.42633 67.0194 4.175 67.4354 3.993C67.8601 3.811 68.3454 3.72 68.8914 3.72C69.7061 3.72 70.3604 3.928 70.8544 4.344C71.3571 4.75133 71.6258 5.31033 71.6604 6.021H70.1784C70.1524 5.70033 70.0224 5.44467 69.7884 5.254C69.5544 5.06333 69.2381 4.968 68.8394 4.968C68.4494 4.968 68.1504 5.04167 67.9424 5.189C67.7344 5.33633 67.6304 5.53133 67.6304 5.774C67.6304 5.96467 67.6998 6.125 67.8384 6.255C67.9771 6.385 68.1461 6.489 68.3454 6.567C68.5448 6.63633 68.8394 6.72733 69.2294 6.84C69.7494 6.97867 70.1741 7.12167 70.5034 7.269C70.8414 7.40767 71.1318 7.61567 71.3744 7.893C71.6171 8.17033 71.7428 8.53867 71.7514 8.998C71.7514 9.40533 71.6388 9.76933 71.4134 10.09C71.1881 10.4107 70.8674 10.662 70.4514 10.844C70.0441 11.026 69.5631 11.117 69.0084 11.117ZM75.2118 5.046V9.011C75.2118 9.27967 75.2724 9.47467 75.3938 9.596C75.5238 9.70867 75.7404 9.765 76.0438 9.765H76.9538V11H75.7838C75.1164 11 74.6051 10.844 74.2498 10.532C73.8944 10.22 73.7168 9.713 73.7168 9.011V5.046H72.8718V3.837H73.7168V2.056H75.2118V3.837H76.9538V5.046H75.2118Z" fill="#0E4D8D"/>
    <path d="M16.2151 0.533295H5.53892C5.51867 0.533295 5.49841 0.550171 5.49841 0.573799V1.52564C5.49841 1.5459 5.51529 1.56615 5.53892 1.56615H16.2151C16.2354 1.56615 16.2556 1.54927 16.2556 1.52564V0.573799C16.2556 0.550171 16.2387 0.533295 16.2151 0.533295Z" fill="#0E4D8D"/>
    <path d="M5.53892 3.28758H10.8551C10.8753 3.28758 10.8956 3.27071 10.8956 3.24708V2.29523C10.8956 2.27498 10.8787 2.25473 10.8551 2.25473H5.53892C5.51867 2.25473 5.49841 2.27161 5.49841 2.29523V3.24708C5.49841 3.27071 5.51529 3.28758 5.53892 3.28758Z" fill="#0E4D8D"/>
    <path d="M16.2151 6.12283H5.53892C5.51867 6.12283 5.49841 6.13971 5.49841 6.16334V7.11518C5.49841 7.13543 5.51529 7.15569 5.53892 7.15569H16.2151C16.2354 7.15569 16.2556 7.13881 16.2556 7.11518V6.16334C16.2556 6.13971 16.2387 6.12283 16.2151 6.12283Z" fill="#0E4D8D"/>
    <path d="M5.53892 8.87715H10.8551C10.8753 8.87715 10.8956 8.86028 10.8956 8.83665V7.8848C10.8956 7.86455 10.8787 7.8443 10.8551 7.8443H5.53892C5.51867 7.8443 5.49841 7.86118 5.49841 7.8848V8.83665C5.49841 8.86028 5.51529 8.87715 5.53892 8.87715Z" fill="#0E4D8D"/>
    <path d="M16.2151 11.7124H5.53892C5.51867 11.7124 5.49841 11.7293 5.49841 11.7529V12.7048C5.49841 12.725 5.51529 12.7453 5.53892 12.7453H16.2151C16.2354 12.7453 16.2556 12.7284 16.2556 12.7048V11.7529C16.2556 11.7293 16.2387 11.7124 16.2151 11.7124Z" fill="#0E4D8D"/>
    <path d="M10.8551 13.4372H5.53892C5.51867 13.4372 5.49841 13.4541 5.49841 13.4777V14.4296C5.49841 14.4498 5.51529 14.4701 5.53892 14.4701H10.8551C10.8753 14.4701 10.8956 14.4532 10.8956 14.4296V13.4777C10.8922 13.4541 10.8753 13.4372 10.8551 13.4372Z" fill="#0E4D8D"/>
    <path d="M1.7518 2.0387L0.894464 1.17462L0 2.0657L0.857336 2.92641L1.74842 3.82088L2.64289 2.93316L4.68834 0.894463L3.80063 0L1.7518 2.0387Z" fill="#0E4D8D"/>
    <path d="M1.7518 7.62827L0.894464 6.76418L0 7.65527L0.857336 8.51598L1.74842 9.41044L2.64289 8.52273L4.68834 6.48403L3.80063 5.58957L1.7518 7.62827Z" fill="#0E4D8D"/>
    <path d="M1.7518 13.2178L0.894464 12.3537L0 13.2448L0.857336 14.1055L1.74842 15L2.64289 14.1089L4.68834 12.0736L3.80063 11.1791L1.7518 13.2178Z" fill="#0E4D8D"/>
    </svg>
    