<svg width="16" height="14" viewBox="0 0 10 10" fill="none" xmlns="http://www.w3.org/2000/svg">
    <path d="M5 0C3.54611 0 2.36328 1.18283 2.36328 2.63672C2.36328 4.09061 3.54611 5.27344 5 5.27344C6.45389 5.27344 7.63672 4.09061 7.63672 2.63672C7.63672 1.18283 6.45389 0 5 0Z" fill="#6A707E"/>
    <path d="M8.28059 6.996C7.55871 6.26303 6.60174 5.85938 5.58594 5.85938H4.41406C3.39828 5.85938 2.44129 6.26303 1.71941 6.996C1.00107 7.72537 0.605469 8.68814 0.605469 9.70703C0.605469 9.86883 0.736641 10 0.898438 10H9.10156C9.26336 10 9.39453 9.86883 9.39453 9.70703C9.39453 8.68814 8.99893 7.72537 8.28059 6.996Z" fill="#6A707E"/>
    </svg>
