<svg width="16" height="14" viewBox="0 0 13 12" fill="none" xmlns="http://www.w3.org/2000/svg">
    <path d="M4.67775 1C3.13097 1 1.87109 2.25988 1.87109 3.80665C1.87109 5.35343 3.13097 6.61331 4.67775 6.61331C6.22452 6.61331 7.4844 5.35343 7.4844 3.80665C7.4844 2.25988 6.22452 1 4.67775 1Z" fill="#6A707E"/>
    <path d="M8.17048 8.44698C7.40125 7.66735 6.38254 7.237 5.30146 7.237H4.05405C2.97297 7.237 1.95426 7.66735 1.18503 8.44698C0.422037 9.22245 0 10.2474 0 11.3326C0 11.5052 0.139293 11.6445 0.31185 11.6445H9.04366C9.21622 11.6445 9.35551 11.5052 9.35551 11.3326C9.35551 10.2474 8.93347 9.22245 8.17048 8.44698Z" fill="#6A707E"/>
    <path d="M12.4167 1.41228H11.7237C11.7237 1.41228 11.5965 1.42105 11.5965 1.32018C11.5965 1.14035 11.5965 0.592105 11.5965 0.592105C11.5965 0.263158 11.3289 0 11.0044 0C10.6754 0 10.4123 0.267544 10.4123 0.592105C10.4123 0.592105 10.4123 1.10088 10.4123 1.27193C10.4123 1.41667 10.2632 1.40789 10.2632 1.40789H9.59211C9.26316 1.40789 9 1.67544 9 2C9 2.32456 9.26754 2.59211 9.59211 2.59211H10.2807C10.2807 2.59211 10.4079 2.57895 10.4079 2.7193C10.4079 2.89035 10.4079 3.40789 10.4079 3.40789C10.4079 3.73684 10.6754 4 11 4C11.3289 4 11.5921 3.73246 11.5921 3.40789C11.5921 3.40789 11.5921 2.88158 11.5921 2.71053C11.5921 2.59649 11.7412 2.59211 11.7412 2.59211H12.4079C12.7368 2.59211 13 2.32456 13 2C13 1.67544 12.7456 1.41228 12.4167 1.41228Z" fill="#6A707E"/>
    </svg>
